{
    "asset" : {
        "generator" : "Khronos glTF Blender I/O v1.0.5",
        "version" : "2.0"
    },
    "scene" : 0,
    "scenes" : [
        {
            "name" : "Scene",
            "nodes" : [
                10
            ]
        }
    ],
    "nodes" : [
        {
            "mesh" : 0,
            "name" : "bolts",
            "translation" : [
                -0.01904296875,
                158.81878662109375,
                7.80891227722168
            ]
        },
        {
            "mesh" : 1,
            "name" : "glass",
            "translation" : [
                -0.0787353515625,
                -302.5046081542969,
                13.307052612304688
            ]
        },
        {
            "mesh" : 2,
            "name" : "leg",
            "translation" : [
                -0.2540283203125,
                -321.2696533203125,
                8.828962326049805
            ]
        },
        {
            "mesh" : 3,
            "name" : "logo",
            "translation" : [
                -0.0057373046875,
                -289.7448425292969,
                23.655879974365234
            ]
        },
        {
            "mesh" : 4,
            "name" : "main body",
            "translation" : [
                0,
                15.2371826171875,
                -5.097214698791504
            ]
        },
        {
            "mesh" : 5,
            "name" : "metal",
            "translation" : [
                -0.0809326171875,
                -299.83599853515625,
                13.337625503540039
            ]
        },
        {
            "mesh" : 6,
            "name" : "object",
            "translation" : [
                -0.1214599609375,
                -302.6751708984375,
                13.80305290222168
            ]
        },
        {
            "mesh" : 7,
            "name" : "rubbers",
            "rotation" : [
                0.5,
                -0.5,
                0.5000001192092896,
                0.49999988079071045
            ],
            "translation" : [
                -260.567626953125,
                -334.3003845214844,
                -82.64573669433594
            ]
        },
        {
            "mesh" : 8,
            "name" : "screen",
            "translation" : [
                -0.0001220703125,
                25.828857421875,
                23.164342880249023
            ]
        },
        {
            "mesh" : 9,
            "name" : "upper metal",
            "translation" : [
                0,
                19.50115966796875,
                17.949268341064453
            ]
        },
        {
            "children" : [
                0,
                1,
                2,
                3,
                4,
                5,
                6,
                7,
                8,
                9
            ],
            "name" : "086",
            "scale" : [
                0.0010000000474974513,
                0.0010000000474974513,
                0.0010000000474974513
            ],
            "translation" : [
                -0.6116947531700134,
                0.33729416131973267,
                0
            ]
        }
    ],
    "materials" : [
        {
            "doubleSided" : true,
            "name" : "02 - Default",
            "pbrMetallicRoughness" : {
                "baseColorFactor" : [
                    0.019607843831181526,
                    0.019607843831181526,
                    0.019607843831181526,
                    1
                ],
                "metallicFactor" : 1,
                "roughnessFactor" : 0
            }
        },
        {
            "doubleSided" : true,
            "name" : "03 - Default",
            "pbrMetallicRoughness" : {
                "baseColorFactor" : [
                    0.027450982481241226,
                    0.027450982481241226,
                    0.027450982481241226,
                    1
                ],
                "metallicFactor" : 1,
                "roughnessFactor" : 0
            }
        },
        {
            "doubleSided" : true,
            "name" : "04 - Default",
            "pbrMetallicRoughness" : {
                "baseColorFactor" : [
                    0.5882353186607361,
                    0.5882353186607361,
                    0.5882353186607361,
                    1
                ],
                "metallicFactor" : 1,
                "roughnessFactor" : 0
            }
        },
        {
            "doubleSided" : true,
            "name" : "05 - Default",
            "pbrMetallicRoughness" : {
                "baseColorFactor" : [
                    0.09803922474384308,
                    0.09803922474384308,
                    0.09803922474384308,
                    1
                ],
                "metallicFactor" : 1,
                "roughnessFactor" : 0.8068127632141113
            }
        }
    ],
    "meshes" : [
        {
            "name" : "Mesh.002",
            "primitives" : [
                {
                    "attributes" : {
                        "POSITION" : 0,
                        "NORMAL" : 1,
                        "TEXCOORD_0" : 2
                    },
                    "indices" : 3,
                    "material" : 0
                }
            ]
        },
        {
            "name" : "Mesh.006",
            "primitives" : [
                {
                    "attributes" : {
                        "POSITION" : 4,
                        "NORMAL" : 5,
                        "TEXCOORD_0" : 6
                    },
                    "indices" : 7,
                    "material" : 1
                }
            ]
        },
        {
            "name" : "Mesh.009",
            "primitives" : [
                {
                    "attributes" : {
                        "POSITION" : 8,
                        "NORMAL" : 9
                    },
                    "indices" : 10,
                    "material" : 2
                }
            ]
        },
        {
            "name" : "Mesh.003",
            "primitives" : [
                {
                    "attributes" : {
                        "POSITION" : 11,
                        "NORMAL" : 12
                    },
                    "indices" : 13,
                    "material" : 2
                }
            ]
        },
        {
            "name" : "Mesh.001",
            "primitives" : [
                {
                    "attributes" : {
                        "POSITION" : 14,
                        "NORMAL" : 15,
                        "TEXCOORD_0" : 16
                    },
                    "indices" : 17,
                    "material" : 0
                }
            ]
        },
        {
            "name" : "Mesh.005",
            "primitives" : [
                {
                    "attributes" : {
                        "POSITION" : 18,
                        "NORMAL" : 19,
                        "TEXCOORD_0" : 20
                    },
                    "indices" : 21,
                    "material" : 1
                }
            ]
        },
        {
            "name" : "Mesh.004",
            "primitives" : [
                {
                    "attributes" : {
                        "POSITION" : 22,
                        "NORMAL" : 23,
                        "TEXCOORD_0" : 24
                    },
                    "indices" : 25,
                    "material" : 1
                }
            ]
        },
        {
            "name" : "Mesh.008",
            "primitives" : [
                {
                    "attributes" : {
                        "POSITION" : 26,
                        "NORMAL" : 27,
                        "TEXCOORD_0" : 28
                    },
                    "indices" : 29,
                    "material" : 3
                }
            ]
        },
        {
            "name" : "Mesh",
            "primitives" : [
                {
                    "attributes" : {
                        "POSITION" : 30,
                        "NORMAL" : 31,
                        "TEXCOORD_0" : 32
                    },
                    "indices" : 33
                }
            ]
        },
        {
            "name" : "Mesh.007",
            "primitives" : [
                {
                    "attributes" : {
                        "POSITION" : 34,
                        "NORMAL" : 35,
                        "TEXCOORD_0" : 36
                    },
                    "indices" : 37,
                    "material" : 2
                }
            ]
        }
    ],
    "accessors" : [
        {
            "bufferView" : 0,
            "componentType" : 5126,
            "count" : 5283,
            "max" : [
                544.8217163085938,
                177.0633087158203,
                5.163261413574219
            ],
            "min" : [
                -544.8216552734375,
                -177.06329345703125,
                -5.163204193115234
            ],
            "type" : "VEC3"
        },
        {
            "bufferView" : 1,
            "componentType" : 5126,
            "count" : 5283,
            "type" : "VEC3"
        },
        {
            "bufferView" : 2,
            "componentType" : 5126,
            "count" : 5283,
            "type" : "VEC2"
        },
        {
            "bufferView" : 3,
            "componentType" : 5123,
            "count" : 11088,
            "type" : "SCALAR"
        },
        {
            "bufferView" : 4,
            "componentType" : 5126,
            "count" : 509,
            "max" : [
                106.99869537353516,
                1.6725964546203613,
                3.7059974670410156
            ],
            "min" : [
                -106.99871063232422,
                -1.6725947856903076,
                -3.7060012817382812
            ],
            "type" : "VEC3"
        },
        {
            "bufferView" : 5,
            "componentType" : 5126,
            "count" : 509,
            "type" : "VEC3"
        },
        {
            "bufferView" : 6,
            "componentType" : 5126,
            "count" : 509,
            "type" : "VEC2"
        },
        {
            "bufferView" : 7,
            "componentType" : 5123,
            "count" : 2148,
            "type" : "SCALAR"
        },
        {
            "bufferView" : 8,
            "componentType" : 5126,
            "count" : 1476,
            "max" : [
                265.2135925292969,
                25.303077697753906,
                77.17435455322266
            ],
            "min" : [
                -265.2135925292969,
                -15.309430122375488,
                -92.79082489013672
            ],
            "type" : "VEC3"
        },
        {
            "bufferView" : 9,
            "componentType" : 5126,
            "count" : 1476,
            "type" : "VEC3"
        },
        {
            "bufferView" : 10,
            "componentType" : 5123,
            "count" : 8556,
            "type" : "SCALAR"
        },
        {
            "bufferView" : 11,
            "componentType" : 5126,
            "count" : 1741,
            "max" : [
                23.486875534057617,
                4.241456031799316,
                0.17029845714569092
            ],
            "min" : [
                -23.486875534057617,
                -4.241455078125,
                -0.1702977418899536
            ],
            "type" : "VEC3"
        },
        {
            "bufferView" : 12,
            "componentType" : 5126,
            "count" : 1741,
            "type" : "VEC3"
        },
        {
            "bufferView" : 13,
            "componentType" : 5123,
            "count" : 9015,
            "type" : "SCALAR"
        },
        {
            "bufferView" : 14,
            "componentType" : 5126,
            "count" : 7991,
            "max" : [
                551.2596435546875,
                322.1028137207031,
                28.834095001220703
            ],
            "min" : [
                -551.2596435546875,
                -322.102783203125,
                -28.83399772644043
            ],
            "type" : "VEC3"
        },
        {
            "bufferView" : 15,
            "componentType" : 5126,
            "count" : 7991,
            "type" : "VEC3"
        },
        {
            "bufferView" : 16,
            "componentType" : 5126,
            "count" : 7991,
            "type" : "VEC2"
        },
        {
            "bufferView" : 17,
            "componentType" : 5123,
            "count" : 28440,
            "type" : "SCALAR"
        },
        {
            "bufferView" : 18,
            "componentType" : 5126,
            "count" : 128,
            "max" : [
                106.80718994140625,
                1.1101794242858887,
                3.2787818908691406
            ],
            "min" : [
                -106.80719757080078,
                -1.1101799011230469,
                -3.2787857055664062
            ],
            "type" : "VEC3"
        },
        {
            "bufferView" : 19,
            "componentType" : 5126,
            "count" : 128,
            "type" : "VEC3"
        },
        {
            "bufferView" : 20,
            "componentType" : 5126,
            "count" : 128,
            "type" : "VEC2"
        },
        {
            "bufferView" : 21,
            "componentType" : 5123,
            "count" : 612,
            "type" : "SCALAR"
        },
        {
            "bufferView" : 22,
            "componentType" : 5126,
            "count" : 1092,
            "max" : [
                108.60079956054688,
                4.164462089538574,
                4.113334655761719
            ],
            "min" : [
                -108.60079956054688,
                -4.164462089538574,
                -4.113333702087402
            ],
            "type" : "VEC3"
        },
        {
            "bufferView" : 23,
            "componentType" : 5126,
            "count" : 1092,
            "type" : "VEC3"
        },
        {
            "bufferView" : 24,
            "componentType" : 5126,
            "count" : 1092,
            "type" : "VEC2"
        },
        {
            "bufferView" : 25,
            "componentType" : 5123,
            "count" : 4632,
            "type" : "SCALAR"
        },
        {
            "bufferView" : 26,
            "componentType" : 5126,
            "count" : 1736,
            "max" : [
                164.78286743164062,
                4.0655517578125,
                3.039637565612793
            ],
            "min" : [
                -2.606675148010254,
                -525.158203125,
                -5.718054294586182
            ],
            "type" : "VEC3"
        },
        {
            "bufferView" : 27,
            "componentType" : 5126,
            "count" : 1736,
            "type" : "VEC3"
        },
        {
            "bufferView" : 28,
            "componentType" : 5126,
            "count" : 1736,
            "type" : "VEC2"
        },
        {
            "bufferView" : 29,
            "componentType" : 5123,
            "count" : 8196,
            "type" : "SCALAR"
        },
        {
            "bufferView" : 30,
            "componentType" : 5126,
            "count" : 45,
            "max" : [
                540.7591552734375,
                306.0325927734375,
                0.0003247261047363281
            ],
            "min" : [
                -540.7591552734375,
                -306.0325927734375,
                -0.0005559921264648438
            ],
            "type" : "VEC3"
        },
        {
            "bufferView" : 31,
            "componentType" : 5126,
            "count" : 45,
            "type" : "VEC3"
        },
        {
            "bufferView" : 32,
            "componentType" : 5126,
            "count" : 45,
            "type" : "VEC2"
        },
        {
            "bufferView" : 33,
            "componentType" : 5123,
            "count" : 204,
            "type" : "SCALAR"
        },
        {
            "bufferView" : 34,
            "componentType" : 5126,
            "count" : 488,
            "max" : [
                551.2597045898438,
                317.8388366699219,
                5.787762641906738
            ],
            "min" : [
                -551.2596435546875,
                -317.8388366699219,
                -5.787804126739502
            ],
            "type" : "VEC3"
        },
        {
            "bufferView" : 35,
            "componentType" : 5126,
            "count" : 488,
            "type" : "VEC3"
        },
        {
            "bufferView" : 36,
            "componentType" : 5126,
            "count" : 488,
            "type" : "VEC2"
        },
        {
            "bufferView" : 37,
            "componentType" : 5123,
            "count" : 2436,
            "type" : "SCALAR"
        }
    ],
    "bufferViews" : [
        {
            "buffer" : 0,
            "byteLength" : 63396,
            "byteOffset" : 0
        },
        {
            "buffer" : 0,
            "byteLength" : 63396,
            "byteOffset" : 63396
        },
        {
            "buffer" : 0,
            "byteLength" : 42264,
            "byteOffset" : 126792
        },
        {
            "buffer" : 0,
            "byteLength" : 22176,
            "byteOffset" : 169056
        },
        {
            "buffer" : 0,
            "byteLength" : 6108,
            "byteOffset" : 191232
        },
        {
            "buffer" : 0,
            "byteLength" : 6108,
            "byteOffset" : 197340
        },
        {
            "buffer" : 0,
            "byteLength" : 4072,
            "byteOffset" : 203448
        },
        {
            "buffer" : 0,
            "byteLength" : 4296,
            "byteOffset" : 207520
        },
        {
            "buffer" : 0,
            "byteLength" : 17712,
            "byteOffset" : 211816
        },
        {
            "buffer" : 0,
            "byteLength" : 17712,
            "byteOffset" : 229528
        },
        {
            "buffer" : 0,
            "byteLength" : 17112,
            "byteOffset" : 247240
        },
        {
            "buffer" : 0,
            "byteLength" : 20892,
            "byteOffset" : 264352
        },
        {
            "buffer" : 0,
            "byteLength" : 20892,
            "byteOffset" : 285244
        },
        {
            "buffer" : 0,
            "byteLength" : 18030,
            "byteOffset" : 306136
        },
        {
            "buffer" : 0,
            "byteLength" : 95892,
            "byteOffset" : 324168
        },
        {
            "buffer" : 0,
            "byteLength" : 95892,
            "byteOffset" : 420060
        },
        {
            "buffer" : 0,
            "byteLength" : 63928,
            "byteOffset" : 515952
        },
        {
            "buffer" : 0,
            "byteLength" : 56880,
            "byteOffset" : 579880
        },
        {
            "buffer" : 0,
            "byteLength" : 1536,
            "byteOffset" : 636760
        },
        {
            "buffer" : 0,
            "byteLength" : 1536,
            "byteOffset" : 638296
        },
        {
            "buffer" : 0,
            "byteLength" : 1024,
            "byteOffset" : 639832
        },
        {
            "buffer" : 0,
            "byteLength" : 1224,
            "byteOffset" : 640856
        },
        {
            "buffer" : 0,
            "byteLength" : 13104,
            "byteOffset" : 642080
        },
        {
            "buffer" : 0,
            "byteLength" : 13104,
            "byteOffset" : 655184
        },
        {
            "buffer" : 0,
            "byteLength" : 8736,
            "byteOffset" : 668288
        },
        {
            "buffer" : 0,
            "byteLength" : 9264,
            "byteOffset" : 677024
        },
        {
            "buffer" : 0,
            "byteLength" : 20832,
            "byteOffset" : 686288
        },
        {
            "buffer" : 0,
            "byteLength" : 20832,
            "byteOffset" : 707120
        },
        {
            "buffer" : 0,
            "byteLength" : 13888,
            "byteOffset" : 727952
        },
        {
            "buffer" : 0,
            "byteLength" : 16392,
            "byteOffset" : 741840
        },
        {
            "buffer" : 0,
            "byteLength" : 540,
            "byteOffset" : 758232
        },
        {
            "buffer" : 0,
            "byteLength" : 540,
            "byteOffset" : 758772
        },
        {
            "buffer" : 0,
            "byteLength" : 360,
            "byteOffset" : 759312
        },
        {
            "buffer" : 0,
            "byteLength" : 408,
            "byteOffset" : 759672
        },
        {
            "buffer" : 0,
            "byteLength" : 5856,
            "byteOffset" : 760080
        },
        {
            "buffer" : 0,
            "byteLength" : 5856,
            "byteOffset" : 765936
        },
        {
            "buffer" : 0,
            "byteLength" : 3904,
            "byteOffset" : 771792
        },
        {
            "buffer" : 0,
            "byteLength" : 4872,
            "byteOffset" : 775696
        }
    ],
    "buffers" : [
        {
            "byteLength" : 780568,
            "uri" : "data:application/octet-stream;base64,"
        }
    ]
}
