{
    "asset" : {
        "generator" : "Khronos glTF Blender I/O v1.1.46",
        "version" : "2.0"
    },
    "extensionsUsed" : [
        "KHR_lights_punctual"
    ],
    "extensionsRequired" : [
        "KHR_lights_punctual"
    ],
    "extensions" : {
        "KHR_lights_punctual" : {
            "lights" : [
                {
                    "color" : [
                        1,
                        1,
                        1
                    ],
                    "intensity" : 20,
                    "type" : "point",
                    "name" : "Point.001"
                },
                {
                    "color" : [
                        1,
                        1,
                        1
                    ],
                    "intensity" : 20,
                    "type" : "point",
                    "name" : "Point.002"
                }
            ]
        }
    },
    "scene" : 0,
    "scenes" : [
        {
            "name" : "Scene",
            "nodes" : [
                10,
                12,
                14
            ]
        }
    ],
    "nodes" : [
        {
            "mesh" : 0,
            "name" : "bolts",
            "translation" : [
                -0.01904296875,
                7.80891227722168,
                -158.81878662109375
            ]
        },
        {
            "mesh" : 1,
            "name" : "glass",
            "translation" : [
                -0.0787353515625,
                13.307052612304688,
                302.5046081542969
            ]
        },
        {
            "mesh" : 2,
            "name" : "leg",
            "translation" : [
                -0.2540283203125,
                8.828962326049805,
                321.2696533203125
            ]
        },
        {
            "mesh" : 3,
            "name" : "logo",
            "translation" : [
                -0.0057373046875,
                23.655879974365234,
                289.7448425292969
            ]
        },
        {
            "mesh" : 4,
            "name" : "main body",
            "translation" : [
                0,
                -5.097214698791504,
                -15.2371826171875
            ]
        },
        {
            "mesh" : 5,
            "name" : "metal",
            "translation" : [
                -0.0809326171875,
                13.337625503540039,
                299.83599853515625
            ]
        },
        {
            "mesh" : 6,
            "name" : "object",
            "translation" : [
                -0.1214599609375,
                13.80305290222168,
                302.6751708984375
            ]
        },
        {
            "mesh" : 7,
            "name" : "rubbers",
            "rotation" : [
                0.5,
                0.5000001192092896,
                0.5,
                0.49999988079071045
            ],
            "translation" : [
                -260.567626953125,
                -82.64573669433594,
                334.3003845214844
            ]
        },
        {
            "mesh" : 8,
            "name" : "screen",
            "translation" : [
                -0.0001220703125,
                23.164342880249023,
                -25.828857421875
            ]
        },
        {
            "mesh" : 9,
            "name" : "upper metal",
            "translation" : [
                0,
                17.949268341064453,
                -19.50115966796875
            ]
        },
        {
            "children" : [
                0,
                1,
                2,
                3,
                4,
                5,
                6,
                7,
                8,
                9
            ],
            "name" : "086",
            "rotation" : [
                0.7071068286895752,
                0,
                0,
                0.7071067094802856
            ],
            "scale" : [
                0.0010000000474974513,
                0.0010000001639127731,
                0.0010000001639127731
            ],
            "translation" : [
                -0.011694729328155518,
                0.33729419112205505,
                0
            ]
        },
        {
            "extensions" : {
                "KHR_lights_punctual" : {
                    "light" : 0
                }
            },
            "name" : "Point_Orientation",
            "rotation" : [
                -0.7071067690849304,
                0,
                0,
                0.7071067690849304
            ]
        },
        {
            "children" : [
                11
            ],
            "name" : "Point",
            "translation" : [
                -0.018673032522201538,
                0.3872010409832001,
                0.7675933837890625
            ]
        },
        {
            "extensions" : {
                "KHR_lights_punctual" : {
                    "light" : 1
                }
            },
            "name" : "Point.001_Orientation",
            "rotation" : [
                -0.7071067690849304,
                0,
                0,
                0.7071067690849304
            ]
        },
        {
            "children" : [
                13
            ],
            "name" : "Point.001",
            "translation" : [
                0.0006505250930786133,
                0.23498420417308807,
                -0.986800491809845
            ]
        }
    ],
    "materials" : [
        {
            "doubleSided" : true,
            "emissiveFactor" : [
                0,
                0,
                0
            ],
            "name" : "02 - Default",
            "pbrMetallicRoughness" : {
                "baseColorFactor" : [
                    0.019607843831181526,
                    0.019607843831181526,
                    0.019607843831181526,
                    1
                ],
                "metallicFactor" : 1,
                "roughnessFactor" : 0
            }
        },
        {
            "doubleSided" : true,
            "emissiveFactor" : [
                0,
                0,
                0
            ],
            "name" : "03 - Default",
            "pbrMetallicRoughness" : {
                "baseColorFactor" : [
                    0.027450982481241226,
                    0.027450982481241226,
                    0.027450982481241226,
                    1
                ],
                "metallicFactor" : 1,
                "roughnessFactor" : 0
            }
        },
        {
            "doubleSided" : true,
            "emissiveFactor" : [
                0,
                0,
                0
            ],
            "name" : "04 - Default",
            "pbrMetallicRoughness" : {
                "baseColorFactor" : [
                    0.5882353186607361,
                    0.5882353186607361,
                    0.5882353186607361,
                    1
                ],
                "metallicFactor" : 1,
                "roughnessFactor" : 0
            }
        },
        {
            "doubleSided" : true,
            "emissiveFactor" : [
                0,
                0,
                0
            ],
            "name" : "05 - Default",
            "pbrMetallicRoughness" : {
                "baseColorFactor" : [
                    0.09803922474384308,
                    0.09803922474384308,
                    0.09803922474384308,
                    1
                ],
                "metallicFactor" : 1,
                "roughnessFactor" : 0.8068127632141113
            }
        }
    ],
    "meshes" : [
        {
            "name" : "Mesh.002",
            "primitives" : [
                {
                    "attributes" : {
                        "POSITION" : 0,
                        "NORMAL" : 1,
                        "TEXCOORD_0" : 2
                    },
                    "indices" : 3,
                    "material" : 0
                }
            ]
        },
        {
            "name" : "Mesh.006",
            "primitives" : [
                {
                    "attributes" : {
                        "POSITION" : 4,
                        "NORMAL" : 5,
                        "TEXCOORD_0" : 6
                    },
                    "indices" : 7,
                    "material" : 1
                }
            ]
        },
        {
            "name" : "Mesh.009",
            "primitives" : [
                {
                    "attributes" : {
                        "POSITION" : 8,
                        "NORMAL" : 9
                    },
                    "indices" : 10,
                    "material" : 2
                }
            ]
        },
        {
            "name" : "Mesh.003",
            "primitives" : [
                {
                    "attributes" : {
                        "POSITION" : 11,
                        "NORMAL" : 12
                    },
                    "indices" : 13,
                    "material" : 2
                }
            ]
        },
        {
            "name" : "Mesh.001",
            "primitives" : [
                {
                    "attributes" : {
                        "POSITION" : 14,
                        "NORMAL" : 15,
                        "TEXCOORD_0" : 16
                    },
                    "indices" : 17,
                    "material" : 0
                }
            ]
        },
        {
            "name" : "Mesh.005",
            "primitives" : [
                {
                    "attributes" : {
                        "POSITION" : 18,
                        "NORMAL" : 19,
                        "TEXCOORD_0" : 20
                    },
                    "indices" : 21,
                    "material" : 1
                }
            ]
        },
        {
            "name" : "Mesh.004",
            "primitives" : [
                {
                    "attributes" : {
                        "POSITION" : 22,
                        "NORMAL" : 23,
                        "TEXCOORD_0" : 24
                    },
                    "indices" : 25,
                    "material" : 1
                }
            ]
        },
        {
            "name" : "Mesh.008",
            "primitives" : [
                {
                    "attributes" : {
                        "POSITION" : 26,
                        "NORMAL" : 27,
                        "TEXCOORD_0" : 28
                    },
                    "indices" : 29,
                    "material" : 3
                }
            ]
        },
        {
            "name" : "Mesh",
            "primitives" : [
                {
                    "attributes" : {
                        "POSITION" : 30,
                        "NORMAL" : 31,
                        "TEXCOORD_0" : 32
                    },
                    "indices" : 33
                }
            ]
        },
        {
            "name" : "Mesh.007",
            "primitives" : [
                {
                    "attributes" : {
                        "POSITION" : 34,
                        "NORMAL" : 35,
                        "TEXCOORD_0" : 36
                    },
                    "indices" : 37,
                    "material" : 2
                }
            ]
        }
    ],
    "accessors" : [
        {
            "bufferView" : 0,
            "componentType" : 5126,
            "count" : 7390,
            "max" : [
                544.8217163085938,
                5.163261413574219,
                177.06329345703125
            ],
            "min" : [
                -544.8216552734375,
                -5.163204193115234,
                -177.0633087158203
            ],
            "type" : "VEC3"
        },
        {
            "bufferView" : 1,
            "componentType" : 5126,
            "count" : 7390,
            "type" : "VEC3"
        },
        {
            "bufferView" : 2,
            "componentType" : 5126,
            "count" : 7390,
            "type" : "VEC2"
        },
        {
            "bufferView" : 3,
            "componentType" : 5123,
            "count" : 11088,
            "type" : "SCALAR"
        },
        {
            "bufferView" : 4,
            "componentType" : 5126,
            "count" : 558,
            "max" : [
                106.99869537353516,
                3.7059974670410156,
                1.6725947856903076
            ],
            "min" : [
                -106.99871063232422,
                -3.7060012817382812,
                -1.6725964546203613
            ],
            "type" : "VEC3"
        },
        {
            "bufferView" : 5,
            "componentType" : 5126,
            "count" : 558,
            "type" : "VEC3"
        },
        {
            "bufferView" : 6,
            "componentType" : 5126,
            "count" : 558,
            "type" : "VEC2"
        },
        {
            "bufferView" : 7,
            "componentType" : 5123,
            "count" : 2148,
            "type" : "SCALAR"
        },
        {
            "bufferView" : 8,
            "componentType" : 5126,
            "count" : 1476,
            "max" : [
                265.2135925292969,
                77.17435455322266,
                15.309430122375488
            ],
            "min" : [
                -265.2135925292969,
                -92.79082489013672,
                -25.303077697753906
            ],
            "type" : "VEC3"
        },
        {
            "bufferView" : 9,
            "componentType" : 5126,
            "count" : 1476,
            "type" : "VEC3"
        },
        {
            "bufferView" : 10,
            "componentType" : 5123,
            "count" : 8556,
            "type" : "SCALAR"
        },
        {
            "bufferView" : 11,
            "componentType" : 5126,
            "count" : 2708,
            "max" : [
                23.486875534057617,
                0.17029845714569092,
                4.241455078125
            ],
            "min" : [
                -23.486875534057617,
                -0.1702977418899536,
                -4.241456031799316
            ],
            "type" : "VEC3"
        },
        {
            "bufferView" : 12,
            "componentType" : 5126,
            "count" : 2708,
            "type" : "VEC3"
        },
        {
            "bufferView" : 13,
            "componentType" : 5123,
            "count" : 9015,
            "type" : "SCALAR"
        },
        {
            "bufferView" : 14,
            "componentType" : 5126,
            "count" : 13383,
            "max" : [
                551.2596435546875,
                28.834095001220703,
                322.102783203125
            ],
            "min" : [
                -551.2596435546875,
                -28.83399772644043,
                -322.1028137207031
            ],
            "type" : "VEC3"
        },
        {
            "bufferView" : 15,
            "componentType" : 5126,
            "count" : 13383,
            "type" : "VEC3"
        },
        {
            "bufferView" : 16,
            "componentType" : 5126,
            "count" : 13383,
            "type" : "VEC2"
        },
        {
            "bufferView" : 17,
            "componentType" : 5123,
            "count" : 28440,
            "type" : "SCALAR"
        },
        {
            "bufferView" : 18,
            "componentType" : 5126,
            "count" : 242,
            "max" : [
                106.80718994140625,
                3.2787818908691406,
                1.1101799011230469
            ],
            "min" : [
                -106.80719757080078,
                -3.2787857055664062,
                -1.1101794242858887
            ],
            "type" : "VEC3"
        },
        {
            "bufferView" : 19,
            "componentType" : 5126,
            "count" : 242,
            "type" : "VEC3"
        },
        {
            "bufferView" : 20,
            "componentType" : 5126,
            "count" : 242,
            "type" : "VEC2"
        },
        {
            "bufferView" : 21,
            "componentType" : 5123,
            "count" : 612,
            "type" : "SCALAR"
        },
        {
            "bufferView" : 22,
            "componentType" : 5126,
            "count" : 1549,
            "max" : [
                108.60079956054688,
                4.113334655761719,
                4.164462089538574
            ],
            "min" : [
                -108.60079956054688,
                -4.113333702087402,
                -4.164462089538574
            ],
            "type" : "VEC3"
        },
        {
            "bufferView" : 23,
            "componentType" : 5126,
            "count" : 1549,
            "type" : "VEC3"
        },
        {
            "bufferView" : 24,
            "componentType" : 5126,
            "count" : 1549,
            "type" : "VEC2"
        },
        {
            "bufferView" : 25,
            "componentType" : 5123,
            "count" : 4632,
            "type" : "SCALAR"
        },
        {
            "bufferView" : 26,
            "componentType" : 5126,
            "count" : 1827,
            "max" : [
                164.78286743164062,
                3.039637565612793,
                525.158203125
            ],
            "min" : [
                -2.606675148010254,
                -5.718054294586182,
                -4.0655517578125
            ],
            "type" : "VEC3"
        },
        {
            "bufferView" : 27,
            "componentType" : 5126,
            "count" : 1827,
            "type" : "VEC3"
        },
        {
            "bufferView" : 28,
            "componentType" : 5126,
            "count" : 1827,
            "type" : "VEC2"
        },
        {
            "bufferView" : 29,
            "componentType" : 5123,
            "count" : 8196,
            "type" : "SCALAR"
        },
        {
            "bufferView" : 30,
            "componentType" : 5126,
            "count" : 204,
            "max" : [
                540.7591552734375,
                0.0003247261047363281,
                306.0325927734375
            ],
            "min" : [
                -540.7591552734375,
                -0.0005559921264648438,
                -306.0325927734375
            ],
            "type" : "VEC3"
        },
        {
            "bufferView" : 31,
            "componentType" : 5126,
            "count" : 204,
            "type" : "VEC3"
        },
        {
            "bufferView" : 32,
            "componentType" : 5126,
            "count" : 204,
            "type" : "VEC2"
        },
        {
            "bufferView" : 33,
            "componentType" : 5123,
            "count" : 204,
            "type" : "SCALAR"
        },
        {
            "bufferView" : 34,
            "componentType" : 5126,
            "count" : 1729,
            "max" : [
                551.2597045898438,
                5.787762641906738,
                317.8388366699219
            ],
            "min" : [
                -551.2596435546875,
                -5.787804126739502,
                -317.8388366699219
            ],
            "type" : "VEC3"
        },
        {
            "bufferView" : 35,
            "componentType" : 5126,
            "count" : 1729,
            "type" : "VEC3"
        },
        {
            "bufferView" : 36,
            "componentType" : 5126,
            "count" : 1729,
            "type" : "VEC2"
        },
        {
            "bufferView" : 37,
            "componentType" : 5123,
            "count" : 2436,
            "type" : "SCALAR"
        }
    ],
    "bufferViews" : [
        {
            "buffer" : 0,
            "byteLength" : 88680,
            "byteOffset" : 0
        },
        {
            "buffer" : 0,
            "byteLength" : 88680,
            "byteOffset" : 88680
        },
        {
            "buffer" : 0,
            "byteLength" : 59120,
            "byteOffset" : 177360
        },
        {
            "buffer" : 0,
            "byteLength" : 22176,
            "byteOffset" : 236480
        },
        {
            "buffer" : 0,
            "byteLength" : 6696,
            "byteOffset" : 258656
        },
        {
            "buffer" : 0,
            "byteLength" : 6696,
            "byteOffset" : 265352
        },
        {
            "buffer" : 0,
            "byteLength" : 4464,
            "byteOffset" : 272048
        },
        {
            "buffer" : 0,
            "byteLength" : 4296,
            "byteOffset" : 276512
        },
        {
            "buffer" : 0,
            "byteLength" : 17712,
            "byteOffset" : 280808
        },
        {
            "buffer" : 0,
            "byteLength" : 17712,
            "byteOffset" : 298520
        },
        {
            "buffer" : 0,
            "byteLength" : 17112,
            "byteOffset" : 316232
        },
        {
            "buffer" : 0,
            "byteLength" : 32496,
            "byteOffset" : 333344
        },
        {
            "buffer" : 0,
            "byteLength" : 32496,
            "byteOffset" : 365840
        },
        {
            "buffer" : 0,
            "byteLength" : 18030,
            "byteOffset" : 398336
        },
        {
            "buffer" : 0,
            "byteLength" : 160596,
            "byteOffset" : 416368
        },
        {
            "buffer" : 0,
            "byteLength" : 160596,
            "byteOffset" : 576964
        },
        {
            "buffer" : 0,
            "byteLength" : 107064,
            "byteOffset" : 737560
        },
        {
            "buffer" : 0,
            "byteLength" : 56880,
            "byteOffset" : 844624
        },
        {
            "buffer" : 0,
            "byteLength" : 2904,
            "byteOffset" : 901504
        },
        {
            "buffer" : 0,
            "byteLength" : 2904,
            "byteOffset" : 904408
        },
        {
            "buffer" : 0,
            "byteLength" : 1936,
            "byteOffset" : 907312
        },
        {
            "buffer" : 0,
            "byteLength" : 1224,
            "byteOffset" : 909248
        },
        {
            "buffer" : 0,
            "byteLength" : 18588,
            "byteOffset" : 910472
        },
        {
            "buffer" : 0,
            "byteLength" : 18588,
            "byteOffset" : 929060
        },
        {
            "buffer" : 0,
            "byteLength" : 12392,
            "byteOffset" : 947648
        },
        {
            "buffer" : 0,
            "byteLength" : 9264,
            "byteOffset" : 960040
        },
        {
            "buffer" : 0,
            "byteLength" : 21924,
            "byteOffset" : 969304
        },
        {
            "buffer" : 0,
            "byteLength" : 21924,
            "byteOffset" : 991228
        },
        {
            "buffer" : 0,
            "byteLength" : 14616,
            "byteOffset" : 1013152
        },
        {
            "buffer" : 0,
            "byteLength" : 16392,
            "byteOffset" : 1027768
        },
        {
            "buffer" : 0,
            "byteLength" : 2448,
            "byteOffset" : 1044160
        },
        {
            "buffer" : 0,
            "byteLength" : 2448,
            "byteOffset" : 1046608
        },
        {
            "buffer" : 0,
            "byteLength" : 1632,
            "byteOffset" : 1049056
        },
        {
            "buffer" : 0,
            "byteLength" : 408,
            "byteOffset" : 1050688
        },
        {
            "buffer" : 0,
            "byteLength" : 20748,
            "byteOffset" : 1051096
        },
        {
            "buffer" : 0,
            "byteLength" : 20748,
            "byteOffset" : 1071844
        },
        {
            "buffer" : 0,
            "byteLength" : 13832,
            "byteOffset" : 1092592
        },
        {
            "buffer" : 0,
            "byteLength" : 4872,
            "byteOffset" : 1106424
        }
    ],
    "buffers" : [
        {
            "byteLength" : 1111296,
            "uri" : "data:application/octet-stream;base64,"
        }
    ]
}
